<mxfile host="app.diagrams.net" modified="2021-01-07T02:49:47.991Z" agent="5.0 (Macintosh; Intel Mac OS X 10_13_6) AppleWebKit/537.36 (KHTML, like Gecko) Chrome/87.0.4280.88 Safari/537.36" etag="ixw1-0UT6jbuXy7WKNtG" version="13.10.0" type="github" pages="4">
  <diagram id="ftaowhCeFTcehrwsAdfa" name="Page-1">
    <mxGraphModel dx="946" dy="549" grid="1" gridSize="10" guides="1" tooltips="1" connect="1" arrows="1" fold="1" page="1" pageScale="1" pageWidth="827" pageHeight="1169" math="0" shadow="0">
      <root>
        <mxCell id="0" />
        <mxCell id="1" parent="0" />
        <mxCell id="gJMy05dTnF1vbZhSVaDm-1" value="" style="rounded=1;arcSize=10;dashed=0;strokeColor=#000000;fillColor=none;gradientColor=none;strokeWidth=2;" vertex="1" parent="1">
          <mxGeometry x="20" y="160" width="220" height="240" as="geometry" />
        </mxCell>
        <mxCell id="gJMy05dTnF1vbZhSVaDm-2" value="" style="dashed=0;html=1;shape=mxgraph.aws3.cloud;fillColor=#F58536;gradientColor=none;dashed=0;" vertex="1" parent="1">
          <mxGeometry x="78" y="136" width="52" height="36" as="geometry" />
        </mxCell>
        <mxCell id="gJMy05dTnF1vbZhSVaDm-3" style="edgeStyle=none;rounded=0;html=1;exitX=0.5;exitY=1;exitDx=0;exitDy=0;exitPerimeter=0;entryX=0.5;entryY=0;entryDx=0;entryDy=0;entryPerimeter=0;startArrow=none;startFill=0;jettySize=auto;orthogonalLoop=1;strokeColor=#00FF00;" edge="1" parent="1" source="gJMy05dTnF1vbZhSVaDm-5" target="gJMy05dTnF1vbZhSVaDm-45">
          <mxGeometry relative="1" as="geometry" />
        </mxCell>
        <mxCell id="gJMy05dTnF1vbZhSVaDm-4" style="edgeStyle=none;rounded=0;html=1;exitX=0.93;exitY=0.93;exitDx=0;exitDy=0;exitPerimeter=0;entryX=0.5;entryY=0;entryDx=0;entryDy=0;entryPerimeter=0;startArrow=none;startFill=0;endArrow=open;endFill=0;jettySize=auto;orthogonalLoop=1;strokeColor=#FF0000;" edge="1" parent="1" source="gJMy05dTnF1vbZhSVaDm-5" target="gJMy05dTnF1vbZhSVaDm-49">
          <mxGeometry relative="1" as="geometry" />
        </mxCell>
        <mxCell id="gJMy05dTnF1vbZhSVaDm-5" value="" style="outlineConnect=0;dashed=0;verticalLabelPosition=bottom;verticalAlign=top;align=center;html=1;shape=mxgraph.aws3.internet_3;fillColor=#D2D3D3;gradientColor=none;" vertex="1" parent="1">
          <mxGeometry x="33" y="40" width="80" height="50" as="geometry" />
        </mxCell>
        <mxCell id="gJMy05dTnF1vbZhSVaDm-6" value="" style="rounded=1;arcSize=10;dashed=0;strokeColor=#000000;fillColor=none;gradientColor=none;strokeWidth=2;html=1;" vertex="1" parent="1">
          <mxGeometry x="310" y="157" width="290" height="247" as="geometry" />
        </mxCell>
        <mxCell id="gJMy05dTnF1vbZhSVaDm-7" value="" style="dashed=0;html=1;shape=mxgraph.aws3.cloud;fillColor=#F58536;gradientColor=none;dashed=0;" vertex="1" parent="1">
          <mxGeometry x="386" y="136" width="52" height="36" as="geometry" />
        </mxCell>
        <mxCell id="gJMy05dTnF1vbZhSVaDm-8" value="" style="rounded=1;arcSize=10;dashed=0;strokeColor=#000000;fillColor=none;gradientColor=none;strokeWidth=2;" vertex="1" parent="1">
          <mxGeometry x="20" y="505" width="580" height="410" as="geometry" />
        </mxCell>
        <mxCell id="gJMy05dTnF1vbZhSVaDm-9" value="" style="dashed=0;html=1;shape=mxgraph.aws3.cloud;fillColor=#F58536;gradientColor=none;dashed=0;" vertex="1" parent="1">
          <mxGeometry x="40" y="485" width="52" height="36" as="geometry" />
        </mxCell>
        <mxCell id="gJMy05dTnF1vbZhSVaDm-10" value="" style="rounded=1;arcSize=10;dashed=0;strokeColor=#000000;fillColor=none;gradientColor=none;strokeWidth=2;" vertex="1" parent="1">
          <mxGeometry x="38" y="192" width="70" height="179" as="geometry" />
        </mxCell>
        <mxCell id="gJMy05dTnF1vbZhSVaDm-11" value="" style="dashed=0;html=1;shape=mxgraph.aws3.virtual_private_cloud;fillColor=#F58536;gradientColor=none;dashed=0;" vertex="1" parent="1">
          <mxGeometry x="46" y="181" width="30" height="22" as="geometry" />
        </mxCell>
        <mxCell id="gJMy05dTnF1vbZhSVaDm-12" value="" style="rounded=1;arcSize=10;dashed=0;strokeColor=#000000;fillColor=none;gradientColor=none;strokeWidth=2;" vertex="1" parent="1">
          <mxGeometry x="50" y="555" width="200" height="320" as="geometry" />
        </mxCell>
        <mxCell id="gJMy05dTnF1vbZhSVaDm-13" value="" style="dashed=0;html=1;shape=mxgraph.aws3.virtual_private_cloud;fillColor=#F58536;gradientColor=none;dashed=0;" vertex="1" parent="1">
          <mxGeometry x="56" y="537" width="52" height="36" as="geometry" />
        </mxCell>
        <mxCell id="gJMy05dTnF1vbZhSVaDm-14" value="" style="rounded=1;arcSize=10;dashed=0;strokeColor=#000000;fillColor=none;gradientColor=none;strokeWidth=2;" vertex="1" parent="1">
          <mxGeometry x="338" y="555" width="200" height="320" as="geometry" />
        </mxCell>
        <mxCell id="gJMy05dTnF1vbZhSVaDm-15" value="" style="dashed=0;html=1;shape=mxgraph.aws3.virtual_private_cloud;fillColor=#F58536;gradientColor=none;dashed=0;" vertex="1" parent="1">
          <mxGeometry x="474" y="537" width="52" height="36" as="geometry" />
        </mxCell>
        <mxCell id="gJMy05dTnF1vbZhSVaDm-16" value="" style="rounded=1;arcSize=10;dashed=0;strokeColor=#000000;fillColor=none;gradientColor=none;strokeWidth=2;" vertex="1" parent="1">
          <mxGeometry x="321" y="196" width="130" height="179" as="geometry" />
        </mxCell>
        <mxCell id="gJMy05dTnF1vbZhSVaDm-17" value="" style="dashed=0;html=1;shape=mxgraph.aws3.virtual_private_cloud;fillColor=#F58536;gradientColor=none;dashed=0;" vertex="1" parent="1">
          <mxGeometry x="331" y="185" width="30" height="22" as="geometry" />
        </mxCell>
        <mxCell id="gJMy05dTnF1vbZhSVaDm-18" value="" style="rounded=1;arcSize=10;dashed=0;strokeColor=#000000;fillColor=none;gradientColor=none;strokeWidth=2;" vertex="1" parent="1">
          <mxGeometry x="461" y="196" width="130" height="179" as="geometry" />
        </mxCell>
        <mxCell id="gJMy05dTnF1vbZhSVaDm-19" value="" style="dashed=0;html=1;shape=mxgraph.aws3.virtual_private_cloud;fillColor=#F58536;gradientColor=none;dashed=0;" vertex="1" parent="1">
          <mxGeometry x="550" y="185" width="30" height="22" as="geometry" />
        </mxCell>
        <mxCell id="gJMy05dTnF1vbZhSVaDm-20" value="" style="rounded=1;arcSize=10;dashed=0;strokeColor=#000000;fillColor=none;gradientColor=none;strokeWidth=2;" vertex="1" parent="1">
          <mxGeometry x="148" y="191.5" width="70" height="179" as="geometry" />
        </mxCell>
        <mxCell id="gJMy05dTnF1vbZhSVaDm-21" value="" style="dashed=0;html=1;shape=mxgraph.aws3.virtual_private_cloud;fillColor=#F58536;gradientColor=none;dashed=0;" vertex="1" parent="1">
          <mxGeometry x="179" y="181" width="30" height="22" as="geometry" />
        </mxCell>
        <mxCell id="gJMy05dTnF1vbZhSVaDm-22" style="rounded=0;html=1;exitX=0.5;exitY=0;exitDx=0;exitDy=0;exitPerimeter=0;entryX=0.5;entryY=1;entryDx=0;entryDy=0;entryPerimeter=0;startArrow=classic;startFill=1;jettySize=auto;orthogonalLoop=1;strokeColor=#00CC00;endArrow=none;endFill=0;" edge="1" parent="1" source="gJMy05dTnF1vbZhSVaDm-24" target="gJMy05dTnF1vbZhSVaDm-37">
          <mxGeometry relative="1" as="geometry" />
        </mxCell>
        <mxCell id="gJMy05dTnF1vbZhSVaDm-23" style="edgeStyle=none;rounded=0;html=1;exitX=0.5;exitY=1;exitDx=0;exitDy=0;exitPerimeter=0;entryX=0.5;entryY=0;entryDx=0;entryDy=0;entryPerimeter=0;startArrow=none;startFill=0;endArrow=open;endFill=0;jettySize=auto;orthogonalLoop=1;strokeColor=#00FF00;" edge="1" parent="1" source="gJMy05dTnF1vbZhSVaDm-24" target="gJMy05dTnF1vbZhSVaDm-61">
          <mxGeometry relative="1" as="geometry" />
        </mxCell>
        <mxCell id="gJMy05dTnF1vbZhSVaDm-24" value="" style="outlineConnect=0;dashed=0;verticalLabelPosition=bottom;verticalAlign=top;align=center;html=1;shape=mxgraph.aws3.vpc_peering;fillColor=#F58536;gradientColor=none;" vertex="1" parent="1">
          <mxGeometry x="130" y="540" width="30" height="30" as="geometry" />
        </mxCell>
        <mxCell id="gJMy05dTnF1vbZhSVaDm-25" style="rounded=0;html=1;exitX=0.5;exitY=0;exitDx=0;exitDy=0;exitPerimeter=0;entryX=0.5;entryY=1;entryDx=0;entryDy=0;entryPerimeter=0;startArrow=blockThin;startFill=1;jettySize=auto;orthogonalLoop=1;strokeColor=#00FF00;" edge="1" parent="1" source="gJMy05dTnF1vbZhSVaDm-26" target="gJMy05dTnF1vbZhSVaDm-33">
          <mxGeometry relative="1" as="geometry" />
        </mxCell>
        <mxCell id="gJMy05dTnF1vbZhSVaDm-26" value="" style="outlineConnect=0;dashed=0;verticalLabelPosition=bottom;verticalAlign=top;align=center;html=1;shape=mxgraph.aws3.vpc_peering;fillColor=#F58536;gradientColor=none;" vertex="1" parent="1">
          <mxGeometry x="185" y="541" width="30" height="30" as="geometry" />
        </mxCell>
        <mxCell id="gJMy05dTnF1vbZhSVaDm-27" style="rounded=0;html=1;exitX=0.5;exitY=0;exitDx=0;exitDy=0;exitPerimeter=0;entryX=0.5;entryY=1;entryDx=0;entryDy=0;entryPerimeter=0;startArrow=classic;startFill=1;jettySize=auto;orthogonalLoop=1;strokeColor=#FF0000;endArrow=none;endFill=0;" edge="1" parent="1" source="gJMy05dTnF1vbZhSVaDm-29" target="gJMy05dTnF1vbZhSVaDm-36">
          <mxGeometry relative="1" as="geometry" />
        </mxCell>
        <mxCell id="gJMy05dTnF1vbZhSVaDm-28" style="edgeStyle=orthogonalEdgeStyle;rounded=0;html=1;exitX=0.5;exitY=1;exitDx=0;exitDy=0;exitPerimeter=0;startArrow=none;startFill=0;endArrow=classic;endFill=1;jettySize=auto;orthogonalLoop=1;strokeColor=#FF0000;entryX=0;entryY=0.5;entryDx=0;entryDy=0;entryPerimeter=0;" edge="1" parent="1" source="gJMy05dTnF1vbZhSVaDm-29" target="gJMy05dTnF1vbZhSVaDm-69">
          <mxGeometry relative="1" as="geometry" />
        </mxCell>
        <mxCell id="gJMy05dTnF1vbZhSVaDm-29" value="" style="outlineConnect=0;dashed=0;verticalLabelPosition=bottom;verticalAlign=top;align=center;html=1;shape=mxgraph.aws3.vpc_peering;fillColor=#F58536;gradientColor=none;" vertex="1" parent="1">
          <mxGeometry x="371" y="540" width="30" height="30" as="geometry" />
        </mxCell>
        <mxCell id="gJMy05dTnF1vbZhSVaDm-30" style="edgeStyle=none;rounded=0;html=1;exitX=0.5;exitY=0;exitDx=0;exitDy=0;exitPerimeter=0;entryX=0.5;entryY=1;entryDx=0;entryDy=0;entryPerimeter=0;startArrow=blockThin;startFill=1;jettySize=auto;orthogonalLoop=1;strokeColor=#FF0000;" edge="1" parent="1" source="gJMy05dTnF1vbZhSVaDm-31" target="gJMy05dTnF1vbZhSVaDm-35">
          <mxGeometry relative="1" as="geometry" />
        </mxCell>
        <mxCell id="gJMy05dTnF1vbZhSVaDm-31" value="" style="outlineConnect=0;dashed=0;verticalLabelPosition=bottom;verticalAlign=top;align=center;html=1;shape=mxgraph.aws3.vpc_peering;fillColor=#F58536;gradientColor=none;" vertex="1" parent="1">
          <mxGeometry x="423" y="540" width="30" height="30" as="geometry" />
        </mxCell>
        <mxCell id="gJMy05dTnF1vbZhSVaDm-32" style="edgeStyle=none;rounded=0;html=1;exitX=0.5;exitY=0;exitDx=0;exitDy=0;exitPerimeter=0;entryX=0.5;entryY=1;entryDx=0;entryDy=0;entryPerimeter=0;startArrow=classic;startFill=1;endArrow=classic;endFill=1;jettySize=auto;orthogonalLoop=1;strokeColor=#000000;" edge="1" parent="1" source="gJMy05dTnF1vbZhSVaDm-33" target="gJMy05dTnF1vbZhSVaDm-52">
          <mxGeometry relative="1" as="geometry" />
        </mxCell>
        <mxCell id="gJMy05dTnF1vbZhSVaDm-33" value="" style="outlineConnect=0;dashed=0;verticalLabelPosition=bottom;verticalAlign=top;align=center;html=1;shape=mxgraph.aws3.vpc_peering;fillColor=#F58536;gradientColor=none;" vertex="1" parent="1">
          <mxGeometry x="511" y="360" width="30" height="30" as="geometry" />
        </mxCell>
        <mxCell id="gJMy05dTnF1vbZhSVaDm-34" style="edgeStyle=none;rounded=0;html=1;exitX=0.5;exitY=0;exitDx=0;exitDy=0;exitPerimeter=0;entryX=0.5;entryY=1;entryDx=0;entryDy=0;entryPerimeter=0;startArrow=classic;startFill=1;endArrow=classic;endFill=1;jettySize=auto;orthogonalLoop=1;strokeColor=#000000;" edge="1" parent="1" source="gJMy05dTnF1vbZhSVaDm-35" target="gJMy05dTnF1vbZhSVaDm-53">
          <mxGeometry relative="1" as="geometry" />
        </mxCell>
        <mxCell id="gJMy05dTnF1vbZhSVaDm-35" value="" style="outlineConnect=0;dashed=0;verticalLabelPosition=bottom;verticalAlign=top;align=center;html=1;shape=mxgraph.aws3.vpc_peering;fillColor=#F58536;gradientColor=none;" vertex="1" parent="1">
          <mxGeometry x="371" y="360" width="30" height="30" as="geometry" />
        </mxCell>
        <mxCell id="gJMy05dTnF1vbZhSVaDm-36" value="" style="outlineConnect=0;dashed=0;verticalLabelPosition=bottom;verticalAlign=top;align=center;html=1;shape=mxgraph.aws3.vpc_peering;fillColor=#F58536;gradientColor=none;" vertex="1" parent="1">
          <mxGeometry x="168" y="355" width="30" height="30" as="geometry" />
        </mxCell>
        <mxCell id="gJMy05dTnF1vbZhSVaDm-37" value="" style="outlineConnect=0;dashed=0;verticalLabelPosition=bottom;verticalAlign=top;align=center;html=1;shape=mxgraph.aws3.vpc_peering;fillColor=#F58536;gradientColor=none;" vertex="1" parent="1">
          <mxGeometry x="58" y="355" width="30" height="30" as="geometry" />
        </mxCell>
        <mxCell id="gJMy05dTnF1vbZhSVaDm-38" value="CCOE" style="text;html=1;resizable=0;points=[];autosize=1;align=left;verticalAlign=top;spacingTop=-4;" vertex="1" parent="1">
          <mxGeometry x="449" y="162" width="50" height="20" as="geometry" />
        </mxCell>
        <mxCell id="gJMy05dTnF1vbZhSVaDm-39" value="Security&lt;br&gt;&lt;br&gt;" style="text;html=1;resizable=0;points=[];autosize=1;align=left;verticalAlign=top;spacingTop=-4;" vertex="1" parent="1">
          <mxGeometry x="130" y="162" width="60" height="30" as="geometry" />
        </mxCell>
        <mxCell id="gJMy05dTnF1vbZhSVaDm-40" value="DEV&amp;amp;SIT" style="text;html=1;resizable=0;points=[];autosize=1;align=left;verticalAlign=top;spacingTop=-4;" vertex="1" parent="1">
          <mxGeometry x="113" y="840" width="70" height="20" as="geometry" />
        </mxCell>
        <mxCell id="gJMy05dTnF1vbZhSVaDm-41" value="PROD&lt;br&gt;" style="text;html=1;resizable=0;points=[];autosize=1;align=left;verticalAlign=top;spacingTop=-4;" vertex="1" parent="1">
          <mxGeometry x="415" y="840" width="50" height="20" as="geometry" />
        </mxCell>
        <mxCell id="gJMy05dTnF1vbZhSVaDm-42" style="edgeStyle=none;rounded=0;html=1;exitX=0.5;exitY=1;exitDx=0;exitDy=0;exitPerimeter=0;startArrow=none;startFill=0;jettySize=auto;orthogonalLoop=1;strokeColor=#00FF00;" edge="1" parent="1" source="gJMy05dTnF1vbZhSVaDm-43" target="gJMy05dTnF1vbZhSVaDm-37">
          <mxGeometry relative="1" as="geometry" />
        </mxCell>
        <mxCell id="gJMy05dTnF1vbZhSVaDm-43" value="&lt;font style=&quot;font-size: 8px&quot;&gt;WAF&lt;/font&gt;" style="outlineConnect=0;dashed=0;verticalLabelPosition=bottom;verticalAlign=top;align=center;html=1;shape=mxgraph.aws3.instance;fillColor=#F58534;gradientColor=none;" vertex="1" parent="1">
          <mxGeometry x="61" y="260" width="20" height="20" as="geometry" />
        </mxCell>
        <mxCell id="gJMy05dTnF1vbZhSVaDm-44" style="edgeStyle=none;rounded=0;html=1;exitX=0.5;exitY=1;exitDx=0;exitDy=0;exitPerimeter=0;entryX=0.5;entryY=0;entryDx=0;entryDy=0;entryPerimeter=0;startArrow=none;startFill=0;jettySize=auto;orthogonalLoop=1;strokeColor=#00FF00;" edge="1" parent="1" source="gJMy05dTnF1vbZhSVaDm-45" target="gJMy05dTnF1vbZhSVaDm-43">
          <mxGeometry relative="1" as="geometry" />
        </mxCell>
        <mxCell id="gJMy05dTnF1vbZhSVaDm-45" value="&lt;font style=&quot;font-size: 8px&quot;&gt;ELB&lt;/font&gt;" style="outlineConnect=0;dashed=0;verticalLabelPosition=bottom;verticalAlign=top;align=center;html=1;shape=mxgraph.aws3.elastic_load_balancing;fillColor=#F58536;gradientColor=none;" vertex="1" parent="1">
          <mxGeometry x="63" y="209" width="20" height="30" as="geometry" />
        </mxCell>
        <mxCell id="gJMy05dTnF1vbZhSVaDm-46" style="edgeStyle=none;rounded=0;html=1;exitX=0.5;exitY=1;exitDx=0;exitDy=0;exitPerimeter=0;entryX=0.325;entryY=1.2;entryDx=0;entryDy=0;entryPerimeter=0;startArrow=none;startFill=0;endArrow=open;endFill=0;jettySize=auto;orthogonalLoop=1;strokeColor=#FF0000;" edge="1" parent="1" source="gJMy05dTnF1vbZhSVaDm-47" target="gJMy05dTnF1vbZhSVaDm-50">
          <mxGeometry relative="1" as="geometry" />
        </mxCell>
        <mxCell id="gJMy05dTnF1vbZhSVaDm-47" value="&lt;font style=&quot;font-size: 8px&quot;&gt;WAF&lt;/font&gt;" style="outlineConnect=0;dashed=0;verticalLabelPosition=bottom;verticalAlign=top;align=center;html=1;shape=mxgraph.aws3.instance;fillColor=#F58534;gradientColor=none;" vertex="1" parent="1">
          <mxGeometry x="172.5" y="259" width="20" height="20" as="geometry" />
        </mxCell>
        <mxCell id="gJMy05dTnF1vbZhSVaDm-48" style="edgeStyle=none;rounded=0;html=1;exitX=0.5;exitY=1;exitDx=0;exitDy=0;exitPerimeter=0;entryX=0.5;entryY=0;entryDx=0;entryDy=0;entryPerimeter=0;startArrow=none;startFill=0;endArrow=open;endFill=0;jettySize=auto;orthogonalLoop=1;strokeColor=#FF0000;" edge="1" parent="1" source="gJMy05dTnF1vbZhSVaDm-49" target="gJMy05dTnF1vbZhSVaDm-47">
          <mxGeometry relative="1" as="geometry" />
        </mxCell>
        <mxCell id="gJMy05dTnF1vbZhSVaDm-49" value="&lt;font style=&quot;font-size: 8px&quot;&gt;ELB&lt;/font&gt;" style="outlineConnect=0;dashed=0;verticalLabelPosition=bottom;verticalAlign=top;align=center;html=1;shape=mxgraph.aws3.elastic_load_balancing;fillColor=#F58536;gradientColor=none;" vertex="1" parent="1">
          <mxGeometry x="175" y="210" width="20" height="30" as="geometry" />
        </mxCell>
        <mxCell id="gJMy05dTnF1vbZhSVaDm-50" value="&lt;font style=&quot;font-size: 8px&quot;&gt;PROD&lt;/font&gt;&lt;br&gt;" style="text;html=1;resizable=0;points=[];autosize=1;align=left;verticalAlign=top;spacingTop=-4;" vertex="1" parent="1">
          <mxGeometry x="171" y="335" width="40" height="20" as="geometry" />
        </mxCell>
        <mxCell id="gJMy05dTnF1vbZhSVaDm-51" value="&lt;font style=&quot;font-size: 8px&quot;&gt;DEV&amp;amp;SIT&lt;/font&gt;" style="text;html=1;resizable=0;points=[];autosize=1;align=left;verticalAlign=top;spacingTop=-4;" vertex="1" parent="1">
          <mxGeometry x="52" y="335" width="50" height="20" as="geometry" />
        </mxCell>
        <mxCell id="gJMy05dTnF1vbZhSVaDm-52" value="" style="outlineConnect=0;dashed=0;verticalLabelPosition=bottom;verticalAlign=top;align=center;html=1;shape=mxgraph.aws3.instances;fillColor=#F58534;gradientColor=none;" vertex="1" parent="1">
          <mxGeometry x="509" y="289" width="34" height="30" as="geometry" />
        </mxCell>
        <mxCell id="gJMy05dTnF1vbZhSVaDm-53" value="" style="outlineConnect=0;dashed=0;verticalLabelPosition=bottom;verticalAlign=top;align=center;html=1;shape=mxgraph.aws3.instances;fillColor=#F58534;gradientColor=none;" vertex="1" parent="1">
          <mxGeometry x="369" y="283" width="34" height="30" as="geometry" />
        </mxCell>
        <mxCell id="gJMy05dTnF1vbZhSVaDm-54" value="" style="rounded=1;arcSize=10;dashed=1;strokeColor=#F59D56;fillColor=none;gradientColor=none;dashPattern=8 4;strokeWidth=2;html=1;" vertex="1" parent="1">
          <mxGeometry x="60" y="576" width="180" height="280" as="geometry" />
        </mxCell>
        <mxCell id="gJMy05dTnF1vbZhSVaDm-55" value="" style="rounded=1;arcSize=10;dashed=1;strokeColor=#F59D56;fillColor=none;gradientColor=none;dashPattern=8 4;strokeWidth=2;html=1;" vertex="1" parent="1">
          <mxGeometry x="350" y="579" width="180" height="282" as="geometry" />
        </mxCell>
        <mxCell id="gJMy05dTnF1vbZhSVaDm-56" value="" style="rounded=1;arcSize=10;dashed=0;strokeColor=#000000;fillColor=none;gradientColor=none;strokeWidth=2;html=1;" vertex="1" parent="1">
          <mxGeometry x="70" y="600" width="160" height="110" as="geometry" />
        </mxCell>
        <mxCell id="gJMy05dTnF1vbZhSVaDm-57" value="" style="dashed=0;html=1;shape=mxgraph.aws3.permissions;fillColor=#D9A741;gradientColor=none;dashed=0;" vertex="1" parent="1">
          <mxGeometry x="82" y="590" width="20" height="20" as="geometry" />
        </mxCell>
        <mxCell id="gJMy05dTnF1vbZhSVaDm-58" value="" style="rounded=1;arcSize=10;dashed=0;strokeColor=#000000;fillColor=none;gradientColor=none;strokeWidth=2;html=1;" vertex="1" parent="1">
          <mxGeometry x="72" y="730" width="160" height="110" as="geometry" />
        </mxCell>
        <mxCell id="gJMy05dTnF1vbZhSVaDm-59" value="" style="dashed=0;html=1;shape=mxgraph.aws3.permissions;fillColor=#D9A741;gradientColor=none;dashed=0;" vertex="1" parent="1">
          <mxGeometry x="84" y="720" width="20" height="20" as="geometry" />
        </mxCell>
        <mxCell id="gJMy05dTnF1vbZhSVaDm-60" style="edgeStyle=orthogonalEdgeStyle;rounded=0;html=1;exitX=1;exitY=0.5;exitDx=0;exitDy=0;exitPerimeter=0;entryX=0.5;entryY=1;entryDx=0;entryDy=0;entryPerimeter=0;startArrow=classic;startFill=1;endArrow=classic;endFill=1;jettySize=auto;orthogonalLoop=1;strokeColor=#00FF00;" edge="1" parent="1" source="gJMy05dTnF1vbZhSVaDm-61" target="gJMy05dTnF1vbZhSVaDm-26">
          <mxGeometry relative="1" as="geometry" />
        </mxCell>
        <mxCell id="gJMy05dTnF1vbZhSVaDm-61" value="APP&lt;br&gt;" style="outlineConnect=0;dashed=0;verticalLabelPosition=bottom;verticalAlign=top;align=center;html=1;shape=mxgraph.aws3.instance;fillColor=#F58534;gradientColor=none;" vertex="1" parent="1">
          <mxGeometry x="127" y="750" width="42" height="44" as="geometry" />
        </mxCell>
        <mxCell id="gJMy05dTnF1vbZhSVaDm-62" value="Public&lt;br&gt;" style="text;html=1;resizable=0;points=[];autosize=1;align=left;verticalAlign=top;spacingTop=-4;" vertex="1" parent="1">
          <mxGeometry x="154" y="690" width="50" height="20" as="geometry" />
        </mxCell>
        <mxCell id="gJMy05dTnF1vbZhSVaDm-63" value="Private&lt;br&gt;" style="text;html=1;resizable=0;points=[];autosize=1;align=left;verticalAlign=top;spacingTop=-4;" vertex="1" parent="1">
          <mxGeometry x="155" y="824" width="50" height="20" as="geometry" />
        </mxCell>
        <mxCell id="gJMy05dTnF1vbZhSVaDm-64" value="" style="rounded=1;arcSize=10;dashed=0;strokeColor=#000000;fillColor=none;gradientColor=none;strokeWidth=2;html=1;" vertex="1" parent="1">
          <mxGeometry x="362" y="598" width="160" height="110" as="geometry" />
        </mxCell>
        <mxCell id="gJMy05dTnF1vbZhSVaDm-65" value="" style="dashed=0;html=1;shape=mxgraph.aws3.permissions;fillColor=#D9A741;gradientColor=none;dashed=0;" vertex="1" parent="1">
          <mxGeometry x="374" y="588" width="20" height="20" as="geometry" />
        </mxCell>
        <mxCell id="gJMy05dTnF1vbZhSVaDm-66" value="" style="rounded=1;arcSize=10;dashed=0;strokeColor=#000000;fillColor=none;gradientColor=none;strokeWidth=2;html=1;" vertex="1" parent="1">
          <mxGeometry x="364" y="728" width="160" height="110" as="geometry" />
        </mxCell>
        <mxCell id="gJMy05dTnF1vbZhSVaDm-67" value="" style="dashed=0;html=1;shape=mxgraph.aws3.permissions;fillColor=#D9A741;gradientColor=none;dashed=0;" vertex="1" parent="1">
          <mxGeometry x="376" y="718" width="20" height="20" as="geometry" />
        </mxCell>
        <mxCell id="gJMy05dTnF1vbZhSVaDm-68" style="rounded=0;html=1;exitX=0.5;exitY=0;exitDx=0;exitDy=0;exitPerimeter=0;startArrow=classic;startFill=1;endArrow=classic;endFill=1;jettySize=auto;orthogonalLoop=1;strokeColor=#FF0000;" edge="1" parent="1" source="gJMy05dTnF1vbZhSVaDm-69" target="gJMy05dTnF1vbZhSVaDm-31">
          <mxGeometry relative="1" as="geometry" />
        </mxCell>
        <mxCell id="gJMy05dTnF1vbZhSVaDm-69" value="APP&lt;br&gt;" style="outlineConnect=0;dashed=0;verticalLabelPosition=bottom;verticalAlign=top;align=center;html=1;shape=mxgraph.aws3.instance;fillColor=#F58534;gradientColor=none;" vertex="1" parent="1">
          <mxGeometry x="418" y="761" width="42" height="44" as="geometry" />
        </mxCell>
        <mxCell id="gJMy05dTnF1vbZhSVaDm-70" value="Public&lt;br&gt;" style="text;html=1;resizable=0;points=[];autosize=1;align=left;verticalAlign=top;spacingTop=-4;" vertex="1" parent="1">
          <mxGeometry x="446" y="688" width="50" height="20" as="geometry" />
        </mxCell>
        <mxCell id="gJMy05dTnF1vbZhSVaDm-71" value="Private&lt;br&gt;" style="text;html=1;resizable=0;points=[];autosize=1;align=left;verticalAlign=top;spacingTop=-4;" vertex="1" parent="1">
          <mxGeometry x="447" y="822" width="50" height="20" as="geometry" />
        </mxCell>
        <mxCell id="gJMy05dTnF1vbZhSVaDm-72" value="&lt;font style=&quot;font-size: 9px&quot;&gt;Bastion&lt;/font&gt;&lt;br&gt;" style="outlineConnect=0;dashed=0;verticalLabelPosition=bottom;verticalAlign=top;align=center;html=1;shape=mxgraph.aws3.instance;fillColor=#F58534;gradientColor=none;" vertex="1" parent="1">
          <mxGeometry x="535" y="225" width="30" height="26" as="geometry" />
        </mxCell>
        <mxCell id="gJMy05dTnF1vbZhSVaDm-73" value="&lt;font style=&quot;font-size: 8px&quot;&gt;DEV&amp;amp;SIT&lt;/font&gt;" style="text;html=1;resizable=0;points=[];autosize=1;align=left;verticalAlign=top;spacingTop=-4;" vertex="1" parent="1">
          <mxGeometry x="465" y="345" width="50" height="20" as="geometry" />
        </mxCell>
        <mxCell id="gJMy05dTnF1vbZhSVaDm-74" value="&lt;font style=&quot;font-size: 8px&quot;&gt;PROD&lt;/font&gt;&lt;br&gt;" style="text;html=1;resizable=0;points=[];autosize=1;align=left;verticalAlign=top;spacingTop=-4;" vertex="1" parent="1">
          <mxGeometry x="331" y="345" width="40" height="20" as="geometry" />
        </mxCell>
        <mxCell id="gJMy05dTnF1vbZhSVaDm-75" value="&lt;font style=&quot;font-size: 9px&quot;&gt;Bastion&lt;/font&gt;&lt;br&gt;" style="outlineConnect=0;dashed=0;verticalLabelPosition=bottom;verticalAlign=top;align=center;html=1;shape=mxgraph.aws3.instance;fillColor=#F58534;gradientColor=none;" vertex="1" parent="1">
          <mxGeometry x="398" y="226" width="30" height="26" as="geometry" />
        </mxCell>
        <mxCell id="gJMy05dTnF1vbZhSVaDm-76" value="Internet&lt;br&gt;&lt;br&gt;" style="text;html=1;resizable=0;points=[];autosize=1;align=left;verticalAlign=top;spacingTop=-4;" vertex="1" parent="1">
          <mxGeometry x="52" y="91" width="60" height="30" as="geometry" />
        </mxCell>
        <mxCell id="gJMy05dTnF1vbZhSVaDm-77" style="rounded=0;html=1;exitX=0;exitY=0.75;exitDx=0;exitDy=0;entryX=1;entryY=0.5;entryDx=0;entryDy=0;entryPerimeter=0;startArrow=none;startFill=0;endArrow=classic;endFill=1;jettySize=auto;orthogonalLoop=1;strokeColor=#000000;" edge="1" parent="1" source="gJMy05dTnF1vbZhSVaDm-78" target="gJMy05dTnF1vbZhSVaDm-96">
          <mxGeometry relative="1" as="geometry" />
        </mxCell>
        <mxCell id="gJMy05dTnF1vbZhSVaDm-78" value="&lt;br&gt;OA Zone" style="rounded=1;arcSize=10;dashed=0;strokeColor=#000000;fillColor=none;gradientColor=none;strokeWidth=2;html=1;" vertex="1" parent="1">
          <mxGeometry x="675" y="169" width="200" height="200" as="geometry" />
        </mxCell>
        <mxCell id="gJMy05dTnF1vbZhSVaDm-79" value="" style="dashed=0;html=1;shape=mxgraph.aws3.corporate_data_center;fillColor=#7D7C7C;gradientColor=none;dashed=0;" vertex="1" parent="1">
          <mxGeometry x="667" y="154" width="30" height="42" as="geometry" />
        </mxCell>
        <mxCell id="gJMy05dTnF1vbZhSVaDm-80" style="edgeStyle=none;rounded=0;html=1;exitX=0;exitY=0.5;exitDx=0;exitDy=0;exitPerimeter=0;entryX=1;entryY=0.5;entryDx=0;entryDy=0;entryPerimeter=0;startArrow=none;startFill=0;endArrow=classic;endFill=1;jettySize=auto;orthogonalLoop=1;strokeColor=#00FF00;" edge="1" parent="1" source="gJMy05dTnF1vbZhSVaDm-82" target="gJMy05dTnF1vbZhSVaDm-72">
          <mxGeometry relative="1" as="geometry" />
        </mxCell>
        <mxCell id="gJMy05dTnF1vbZhSVaDm-81" style="edgeStyle=elbowEdgeStyle;rounded=0;html=1;exitX=0.5;exitY=1;exitDx=0;exitDy=0;exitPerimeter=0;startArrow=none;startFill=0;endArrow=classic;endFill=1;jettySize=auto;orthogonalLoop=1;strokeColor=#FF0000;elbow=vertical;dashed=1;" edge="1" parent="1" source="gJMy05dTnF1vbZhSVaDm-82" target="gJMy05dTnF1vbZhSVaDm-75">
          <mxGeometry relative="1" as="geometry" />
        </mxCell>
        <mxCell id="gJMy05dTnF1vbZhSVaDm-82" value="" style="outlineConnect=0;dashed=0;verticalLabelPosition=bottom;verticalAlign=top;align=center;html=1;shape=mxgraph.aws3.users;fillColor=#ACACAC;gradientColor=none;" vertex="1" parent="1">
          <mxGeometry x="740" y="205" width="66" height="63" as="geometry" />
        </mxCell>
        <mxCell id="gJMy05dTnF1vbZhSVaDm-83" style="edgeStyle=orthogonalEdgeStyle;rounded=0;html=1;exitX=0;exitY=0.5;exitDx=0;exitDy=0;exitPerimeter=0;entryX=0.5;entryY=0.025;entryDx=0;entryDy=0;entryPerimeter=0;startArrow=none;startFill=0;endArrow=classic;endFill=1;jettySize=auto;orthogonalLoop=1;strokeColor=#FF0000;dashed=1;" edge="1" parent="1" source="gJMy05dTnF1vbZhSVaDm-85" target="gJMy05dTnF1vbZhSVaDm-87">
          <mxGeometry relative="1" as="geometry">
            <mxPoint x="346" y="237" as="targetPoint" />
          </mxGeometry>
        </mxCell>
        <mxCell id="gJMy05dTnF1vbZhSVaDm-84" style="edgeStyle=elbowEdgeStyle;rounded=0;elbow=vertical;html=1;exitX=0.5;exitY=1;exitDx=0;exitDy=0;exitPerimeter=0;startArrow=none;startFill=0;endArrow=classic;endFill=1;jettySize=auto;orthogonalLoop=1;strokeColor=#00FF00;" edge="1" parent="1" source="gJMy05dTnF1vbZhSVaDm-85" target="gJMy05dTnF1vbZhSVaDm-88">
          <mxGeometry relative="1" as="geometry" />
        </mxCell>
        <mxCell id="gJMy05dTnF1vbZhSVaDm-85" value="" style="outlineConnect=0;dashed=0;verticalLabelPosition=bottom;verticalAlign=top;align=center;html=1;shape=mxgraph.aws3.users;fillColor=#ACACAC;gradientColor=none;" vertex="1" parent="1">
          <mxGeometry x="473" y="27" width="66" height="63" as="geometry" />
        </mxCell>
        <mxCell id="gJMy05dTnF1vbZhSVaDm-86" value="VPN Client&lt;br&gt;&lt;br&gt;" style="text;html=1;resizable=0;points=[];autosize=1;align=left;verticalAlign=top;spacingTop=-4;" vertex="1" parent="1">
          <mxGeometry x="363" y="77" width="70" height="30" as="geometry" />
        </mxCell>
        <mxCell id="gJMy05dTnF1vbZhSVaDm-87" value="" style="outlineConnect=0;dashed=0;verticalLabelPosition=bottom;verticalAlign=top;align=center;html=1;shape=mxgraph.aws3.vpn_connection;fillColor=#F58536;gradientColor=none;" vertex="1" parent="1">
          <mxGeometry x="350" y="222" width="39" height="33" as="geometry" />
        </mxCell>
        <mxCell id="gJMy05dTnF1vbZhSVaDm-88" value="" style="outlineConnect=0;dashed=0;verticalLabelPosition=bottom;verticalAlign=top;align=center;html=1;shape=mxgraph.aws3.vpn_connection;fillColor=#F58536;gradientColor=none;" vertex="1" parent="1">
          <mxGeometry x="486.5" y="222.5" width="39" height="33" as="geometry" />
        </mxCell>
        <mxCell id="gJMy05dTnF1vbZhSVaDm-89" value="Bank Admin User" style="text;html=1;resizable=0;points=[];autosize=1;align=left;verticalAlign=top;spacingTop=-4;" vertex="1" parent="1">
          <mxGeometry x="551" y="62" width="110" height="20" as="geometry" />
        </mxCell>
        <mxCell id="gJMy05dTnF1vbZhSVaDm-91" style="edgeStyle=elbowEdgeStyle;rounded=0;elbow=vertical;html=1;exitX=0;exitY=0.68;exitDx=0;exitDy=0;exitPerimeter=0;startArrow=none;startFill=0;endArrow=classic;endFill=1;jettySize=auto;orthogonalLoop=1;strokeColor=#000000;" edge="1" parent="1" source="gJMy05dTnF1vbZhSVaDm-92">
          <mxGeometry relative="1" as="geometry">
            <mxPoint x="100" y="64" as="targetPoint" />
          </mxGeometry>
        </mxCell>
        <mxCell id="gJMy05dTnF1vbZhSVaDm-92" value="" style="outlineConnect=0;dashed=0;verticalLabelPosition=bottom;verticalAlign=top;align=center;html=1;shape=mxgraph.aws3.user;fillColor=#D2D3D3;gradientColor=none;" vertex="1" parent="1">
          <mxGeometry x="227.5" y="21.5" width="45" height="63" as="geometry" />
        </mxCell>
        <mxCell id="gJMy05dTnF1vbZhSVaDm-93" value="End User&lt;br&gt;&lt;br&gt;" style="text;html=1;resizable=0;points=[];autosize=1;align=left;verticalAlign=top;spacingTop=-4;" vertex="1" parent="1">
          <mxGeometry x="227" y="100" width="70" height="30" as="geometry" />
        </mxCell>
        <mxCell id="gJMy05dTnF1vbZhSVaDm-94" style="edgeStyle=none;rounded=0;html=1;exitX=0;exitY=0.5;exitDx=0;exitDy=0;exitPerimeter=0;entryX=1;entryY=0.687;entryDx=0;entryDy=0;entryPerimeter=0;startArrow=none;startFill=0;endArrow=classic;endFill=1;jettySize=auto;orthogonalLoop=1;strokeColor=#00FF00;" edge="1" parent="1" source="gJMy05dTnF1vbZhSVaDm-96" target="gJMy05dTnF1vbZhSVaDm-18">
          <mxGeometry relative="1" as="geometry" />
        </mxCell>
        <mxCell id="gJMy05dTnF1vbZhSVaDm-95" style="edgeStyle=none;rounded=0;html=1;exitX=0;exitY=0.79;exitDx=0;exitDy=0;exitPerimeter=0;entryX=1;entryY=0.75;entryDx=0;entryDy=0;startArrow=none;startFill=0;endArrow=classic;endFill=1;jettySize=auto;orthogonalLoop=1;strokeColor=#FF0000;" edge="1" parent="1" source="gJMy05dTnF1vbZhSVaDm-96" target="gJMy05dTnF1vbZhSVaDm-16">
          <mxGeometry relative="1" as="geometry" />
        </mxCell>
        <mxCell id="gJMy05dTnF1vbZhSVaDm-96" value="" style="outlineConnect=0;dashed=0;verticalLabelPosition=bottom;verticalAlign=top;align=center;html=1;shape=mxgraph.aws3.direct_connect;fillColor=#F58536;gradientColor=none;" vertex="1" parent="1">
          <mxGeometry x="623" y="299" width="33" height="40" as="geometry" />
        </mxCell>
        <mxCell id="gJMy05dTnF1vbZhSVaDm-97" value="Direct&amp;nbsp;&lt;br&gt;Connect&lt;br&gt;&lt;br&gt;" style="text;html=1;resizable=0;points=[];autosize=1;align=left;verticalAlign=top;spacingTop=-4;" vertex="1" parent="1">
          <mxGeometry x="621" y="348" width="60" height="40" as="geometry" />
        </mxCell>
        <mxCell id="gJMy05dTnF1vbZhSVaDm-98" value="Project Account&lt;br&gt;&lt;br&gt;" style="text;html=1;resizable=0;points=[];autosize=1;align=left;verticalAlign=top;spacingTop=-4;" vertex="1" parent="1">
          <mxGeometry x="250" y="925" width="100" height="30" as="geometry" />
        </mxCell>
        <mxCell id="gJMy05dTnF1vbZhSVaDm-99" value="&lt;font style=&quot;font-size: 8px&quot;&gt;CMP&lt;br&gt;AntiVirus&lt;br&gt;MFA&lt;font style=&quot;font-size: 8px&quot;&gt;&lt;br&gt;&lt;/font&gt;Git Repo&lt;br&gt;&lt;/font&gt;" style="text;html=1;resizable=0;points=[];autosize=1;align=left;verticalAlign=top;spacingTop=-4;" vertex="1" parent="1">
          <mxGeometry x="330" y="268" width="50" height="70" as="geometry" />
        </mxCell>
        <mxCell id="gJMy05dTnF1vbZhSVaDm-100" value="&lt;font style=&quot;font-size: 8px&quot;&gt;CMP&lt;br&gt;AntiVirus&lt;br&gt;MFA&lt;font style=&quot;font-size: 8px&quot;&gt;&lt;br&gt;&lt;/font&gt;Git Repo&lt;br&gt;&lt;/font&gt;" style="text;html=1;resizable=0;points=[];autosize=1;align=left;verticalAlign=top;spacingTop=-4;" vertex="1" parent="1">
          <mxGeometry x="471" y="268" width="50" height="70" as="geometry" />
        </mxCell>
      </root>
    </mxGraphModel>
  </diagram>
  <diagram name="Page-2" id="PUSy-FAprgHvL4GdHqD2">
    <mxGraphModel dx="950" dy="646" grid="1" gridSize="10" guides="1" tooltips="1" connect="1" arrows="1" fold="1" page="1" pageScale="1" pageWidth="850" pageHeight="1100" math="0" shadow="0">
      <root>
        <mxCell id="brSiLPKtjqt_ZH6d_TMa-0" />
        <mxCell id="brSiLPKtjqt_ZH6d_TMa-1" parent="brSiLPKtjqt_ZH6d_TMa-0" />
        <mxCell id="brSiLPKtjqt_ZH6d_TMa-16" style="edgeStyle=orthogonalEdgeStyle;rounded=0;html=1;exitX=0.5;exitY=1;exitDx=0;exitDy=0;entryX=1.043;entryY=0.643;entryDx=0;entryDy=0;entryPerimeter=0;startArrow=none;startFill=0;endArrow=classic;endFill=1;jettySize=auto;orthogonalLoop=1;strokeColor=#000000;curved=1;shadow=0;comic=0;" parent="brSiLPKtjqt_ZH6d_TMa-1" source="brSiLPKtjqt_ZH6d_TMa-2" target="brSiLPKtjqt_ZH6d_TMa-4" edge="1">
          <mxGeometry relative="1" as="geometry">
            <Array as="points">
              <mxPoint x="410" y="260" />
              <mxPoint x="366" y="260" />
            </Array>
          </mxGeometry>
        </mxCell>
        <mxCell id="brSiLPKtjqt_ZH6d_TMa-17" style="edgeStyle=orthogonalEdgeStyle;curved=1;rounded=0;html=1;exitX=0.5;exitY=1;exitDx=0;exitDy=0;entryX=0;entryY=0.75;entryDx=0;entryDy=0;startArrow=none;startFill=0;endArrow=classic;endFill=1;jettySize=auto;orthogonalLoop=1;strokeColor=#000000;shadow=0;comic=0;" parent="brSiLPKtjqt_ZH6d_TMa-1" source="brSiLPKtjqt_ZH6d_TMa-2" target="brSiLPKtjqt_ZH6d_TMa-6" edge="1">
          <mxGeometry relative="1" as="geometry">
            <Array as="points">
              <mxPoint x="410" y="324" />
            </Array>
          </mxGeometry>
        </mxCell>
        <mxCell id="brSiLPKtjqt_ZH6d_TMa-18" style="edgeStyle=orthogonalEdgeStyle;curved=1;rounded=0;html=1;exitX=0.5;exitY=1;exitDx=0;exitDy=0;entryX=1;entryY=0.5;entryDx=0;entryDy=0;startArrow=none;startFill=0;endArrow=classic;endFill=1;jettySize=auto;orthogonalLoop=1;strokeColor=#000000;shadow=0;comic=0;" parent="brSiLPKtjqt_ZH6d_TMa-1" source="brSiLPKtjqt_ZH6d_TMa-2" target="brSiLPKtjqt_ZH6d_TMa-8" edge="1">
          <mxGeometry relative="1" as="geometry" />
        </mxCell>
        <mxCell id="brSiLPKtjqt_ZH6d_TMa-19" style="edgeStyle=orthogonalEdgeStyle;curved=1;rounded=0;html=1;exitX=0.5;exitY=1;exitDx=0;exitDy=0;entryX=0.95;entryY=0.5;entryDx=0;entryDy=0;entryPerimeter=0;startArrow=none;startFill=0;endArrow=classic;endFill=1;jettySize=auto;orthogonalLoop=1;strokeColor=#000000;shadow=0;comic=0;" parent="brSiLPKtjqt_ZH6d_TMa-1" source="brSiLPKtjqt_ZH6d_TMa-2" target="brSiLPKtjqt_ZH6d_TMa-11" edge="1">
          <mxGeometry relative="1" as="geometry">
            <Array as="points">
              <mxPoint x="410" y="434" />
            </Array>
          </mxGeometry>
        </mxCell>
        <mxCell id="brSiLPKtjqt_ZH6d_TMa-20" style="edgeStyle=orthogonalEdgeStyle;curved=1;rounded=0;html=1;exitX=0.5;exitY=1;exitDx=0;exitDy=0;entryX=0.007;entryY=0.143;entryDx=0;entryDy=0;entryPerimeter=0;startArrow=none;startFill=0;endArrow=classic;endFill=1;jettySize=auto;orthogonalLoop=1;strokeColor=#000000;shadow=0;comic=0;" parent="brSiLPKtjqt_ZH6d_TMa-1" source="brSiLPKtjqt_ZH6d_TMa-2" target="brSiLPKtjqt_ZH6d_TMa-12" edge="1">
          <mxGeometry relative="1" as="geometry" />
        </mxCell>
        <mxCell id="brSiLPKtjqt_ZH6d_TMa-2" value="付费账号" style="rounded=1;arcSize=10;dashed=0;strokeColor=#000000;fillColor=none;gradientColor=none;strokeWidth=2;html=1;" parent="brSiLPKtjqt_ZH6d_TMa-1" vertex="1">
          <mxGeometry x="340" y="130" width="140" height="70" as="geometry" />
        </mxCell>
        <mxCell id="brSiLPKtjqt_ZH6d_TMa-3" value="" style="dashed=0;html=1;shape=mxgraph.aws3.cloud;fillColor=#F58536;gradientColor=none;dashed=0;" parent="brSiLPKtjqt_ZH6d_TMa-1" vertex="1">
          <mxGeometry x="360" y="110" width="52" height="36" as="geometry" />
        </mxCell>
        <mxCell id="brSiLPKtjqt_ZH6d_TMa-4" value="安全区账号" style="rounded=1;arcSize=10;dashed=0;strokeColor=#000000;fillColor=none;gradientColor=none;strokeWidth=2;html=1;" parent="brSiLPKtjqt_ZH6d_TMa-1" vertex="1">
          <mxGeometry x="220" y="271" width="140" height="70" as="geometry" />
        </mxCell>
        <mxCell id="brSiLPKtjqt_ZH6d_TMa-5" value="" style="dashed=0;html=1;shape=mxgraph.aws3.cloud;fillColor=#F58536;gradientColor=none;dashed=0;" parent="brSiLPKtjqt_ZH6d_TMa-1" vertex="1">
          <mxGeometry x="220" y="256" width="52" height="36" as="geometry" />
        </mxCell>
        <mxCell id="brSiLPKtjqt_ZH6d_TMa-6" value="CCOE账号" style="rounded=1;arcSize=10;dashed=0;strokeColor=#000000;fillColor=none;gradientColor=none;strokeWidth=2;html=1;" parent="brSiLPKtjqt_ZH6d_TMa-1" vertex="1">
          <mxGeometry x="526" y="271" width="140" height="70" as="geometry" />
        </mxCell>
        <mxCell id="brSiLPKtjqt_ZH6d_TMa-7" value="" style="dashed=0;html=1;shape=mxgraph.aws3.cloud;fillColor=#F58536;gradientColor=none;dashed=0;" parent="brSiLPKtjqt_ZH6d_TMa-1" vertex="1">
          <mxGeometry x="546" y="251" width="52" height="36" as="geometry" />
        </mxCell>
        <mxCell id="brSiLPKtjqt_ZH6d_TMa-8" value="Fintec项目组账号" style="rounded=1;arcSize=10;dashed=0;strokeColor=#000000;fillColor=none;gradientColor=none;strokeWidth=2;html=1;" parent="brSiLPKtjqt_ZH6d_TMa-1" vertex="1">
          <mxGeometry x="90" y="435" width="140" height="70" as="geometry" />
        </mxCell>
        <mxCell id="brSiLPKtjqt_ZH6d_TMa-9" value="" style="dashed=0;html=1;shape=mxgraph.aws3.cloud;fillColor=#F58536;gradientColor=none;dashed=0;" parent="brSiLPKtjqt_ZH6d_TMa-1" vertex="1">
          <mxGeometry x="110" y="415" width="52" height="36" as="geometry" />
        </mxCell>
        <mxCell id="brSiLPKtjqt_ZH6d_TMa-10" value="分行账号" style="rounded=1;arcSize=10;dashed=0;strokeColor=#000000;fillColor=none;gradientColor=none;strokeWidth=2;html=1;" parent="brSiLPKtjqt_ZH6d_TMa-1" vertex="1">
          <mxGeometry x="343" y="436" width="140" height="70" as="geometry" />
        </mxCell>
        <mxCell id="brSiLPKtjqt_ZH6d_TMa-11" value="" style="dashed=0;html=1;shape=mxgraph.aws3.cloud;fillColor=#F58536;gradientColor=none;dashed=0;" parent="brSiLPKtjqt_ZH6d_TMa-1" vertex="1">
          <mxGeometry x="379" y="416" width="52" height="36" as="geometry" />
        </mxCell>
        <mxCell id="brSiLPKtjqt_ZH6d_TMa-12" value="卡中心账号" style="rounded=1;arcSize=10;dashed=0;strokeColor=#000000;fillColor=none;gradientColor=none;strokeWidth=2;html=1;" parent="brSiLPKtjqt_ZH6d_TMa-1" vertex="1">
          <mxGeometry x="580" y="438" width="140" height="70" as="geometry" />
        </mxCell>
        <mxCell id="brSiLPKtjqt_ZH6d_TMa-13" value="" style="dashed=0;html=1;shape=mxgraph.aws3.cloud;fillColor=#F58536;gradientColor=none;dashed=0;" parent="brSiLPKtjqt_ZH6d_TMa-1" vertex="1">
          <mxGeometry x="606" y="418" width="52" height="36" as="geometry" />
        </mxCell>
      </root>
    </mxGraphModel>
  </diagram>
  <diagram name="Page-3" id="Iv2jUWiqo-83zE79X-Lw">
    <mxGraphModel dx="950" dy="646" grid="1" gridSize="10" guides="1" tooltips="1" connect="1" arrows="1" fold="1" page="1" pageScale="1" pageWidth="850" pageHeight="1100" math="0" shadow="0">
      <root>
        <mxCell id="i_VrQHxqHC01QTTOsQBQ-0" />
        <mxCell id="i_VrQHxqHC01QTTOsQBQ-1" parent="i_VrQHxqHC01QTTOsQBQ-0" />
        <mxCell id="vsI_ihTIIE8sU7DxNnEk-5" value="&lt;div&gt;付费账号&lt;/div&gt;&lt;div&gt;cmbchina&lt;/div&gt;&lt;div&gt;(404542495352)&lt;br&gt;&lt;/div&gt;" style="rounded=1;arcSize=10;dashed=0;strokeColor=#000000;fillColor=none;gradientColor=none;strokeWidth=2;html=1;" parent="i_VrQHxqHC01QTTOsQBQ-1" vertex="1">
          <mxGeometry x="340" y="122" width="140" height="70" as="geometry" />
        </mxCell>
        <mxCell id="vsI_ihTIIE8sU7DxNnEk-6" value="" style="dashed=0;html=1;shape=mxgraph.aws3.cloud;fillColor=#F58536;gradientColor=none;dashed=0;" parent="i_VrQHxqHC01QTTOsQBQ-1" vertex="1">
          <mxGeometry x="350" y="98" width="52" height="36" as="geometry" />
        </mxCell>
        <mxCell id="vsI_ihTIIE8sU7DxNnEk-7" value="&lt;div&gt;安全区账号1&lt;br&gt;&lt;/div&gt;&lt;div&gt;cmb-security-oanet&lt;/div&gt;&lt;div&gt;(301572518784)&lt;br&gt;&lt;/div&gt;" style="rounded=1;arcSize=10;dashed=0;strokeColor=#000000;fillColor=none;gradientColor=none;strokeWidth=2;html=1;" parent="i_VrQHxqHC01QTTOsQBQ-1" vertex="1">
          <mxGeometry x="60" y="271" width="140" height="70" as="geometry" />
        </mxCell>
        <mxCell id="vsI_ihTIIE8sU7DxNnEk-8" value="" style="dashed=0;html=1;shape=mxgraph.aws3.cloud;fillColor=#F58536;gradientColor=none;dashed=0;" parent="i_VrQHxqHC01QTTOsQBQ-1" vertex="1">
          <mxGeometry x="69" y="246" width="52" height="36" as="geometry" />
        </mxCell>
        <mxCell id="vsI_ihTIIE8sU7DxNnEk-9" value="&lt;div&gt;CCOE账号&lt;/div&gt;&lt;div&gt;CCOE&lt;br&gt;&lt;/div&gt;&lt;div&gt;(247987438980)&lt;br&gt;&lt;/div&gt;" style="rounded=1;arcSize=10;dashed=0;strokeColor=#000000;fillColor=none;gradientColor=none;strokeWidth=2;html=1;" parent="i_VrQHxqHC01QTTOsQBQ-1" vertex="1">
          <mxGeometry x="453" y="270" width="140" height="70" as="geometry" />
        </mxCell>
        <mxCell id="vsI_ihTIIE8sU7DxNnEk-10" value="" style="dashed=0;html=1;shape=mxgraph.aws3.cloud;fillColor=#F58536;gradientColor=none;dashed=0;" parent="i_VrQHxqHC01QTTOsQBQ-1" vertex="1">
          <mxGeometry x="467" y="245" width="52" height="36" as="geometry" />
        </mxCell>
        <mxCell id="vsI_ihTIIE8sU7DxNnEk-11" value="Fintec项目组账号" style="rounded=1;arcSize=10;dashed=0;strokeColor=#000000;fillColor=none;gradientColor=none;strokeWidth=2;html=1;" parent="i_VrQHxqHC01QTTOsQBQ-1" vertex="1">
          <mxGeometry x="130" y="438" width="140" height="70" as="geometry" />
        </mxCell>
        <mxCell id="vsI_ihTIIE8sU7DxNnEk-12" value="" style="dashed=0;html=1;shape=mxgraph.aws3.cloud;fillColor=#F58536;gradientColor=none;dashed=0;" parent="i_VrQHxqHC01QTTOsQBQ-1" vertex="1">
          <mxGeometry x="150" y="418" width="52" height="36" as="geometry" />
        </mxCell>
        <mxCell id="vsI_ihTIIE8sU7DxNnEk-13" value="分行账号" style="rounded=1;arcSize=10;dashed=0;strokeColor=#000000;fillColor=none;gradientColor=none;strokeWidth=2;html=1;" parent="i_VrQHxqHC01QTTOsQBQ-1" vertex="1">
          <mxGeometry x="353" y="436" width="140" height="70" as="geometry" />
        </mxCell>
        <mxCell id="vsI_ihTIIE8sU7DxNnEk-14" value="" style="dashed=0;html=1;shape=mxgraph.aws3.cloud;fillColor=#F58536;gradientColor=none;dashed=0;" parent="i_VrQHxqHC01QTTOsQBQ-1" vertex="1">
          <mxGeometry x="379" y="416" width="52" height="36" as="geometry" />
        </mxCell>
        <mxCell id="vsI_ihTIIE8sU7DxNnEk-15" value="卡中心账号" style="rounded=1;arcSize=10;dashed=0;strokeColor=#000000;fillColor=none;gradientColor=none;strokeWidth=2;html=1;" parent="i_VrQHxqHC01QTTOsQBQ-1" vertex="1">
          <mxGeometry x="580" y="438" width="140" height="70" as="geometry" />
        </mxCell>
        <mxCell id="vsI_ihTIIE8sU7DxNnEk-16" value="" style="dashed=0;html=1;shape=mxgraph.aws3.cloud;fillColor=#F58536;gradientColor=none;dashed=0;" parent="i_VrQHxqHC01QTTOsQBQ-1" vertex="1">
          <mxGeometry x="606" y="418" width="52" height="36" as="geometry" />
        </mxCell>
        <mxCell id="jCNSbIWRYmI-gDjIFtWc-2" value="&lt;div&gt;安全区账号2&lt;br&gt;&lt;/div&gt;&lt;div&gt;cmb-security-srvnet&lt;br&gt;&lt;/div&gt;(301374222243)" style="rounded=1;arcSize=10;dashed=0;strokeColor=#000000;fillColor=none;gradientColor=none;strokeWidth=2;html=1;" parent="i_VrQHxqHC01QTTOsQBQ-1" vertex="1">
          <mxGeometry x="245" y="270.5" width="140" height="70" as="geometry" />
        </mxCell>
        <mxCell id="jCNSbIWRYmI-gDjIFtWc-3" value="" style="dashed=0;html=1;shape=mxgraph.aws3.cloud;fillColor=#F58536;gradientColor=none;dashed=0;" parent="i_VrQHxqHC01QTTOsQBQ-1" vertex="1">
          <mxGeometry x="254" y="245.5" width="52" height="36" as="geometry" />
        </mxCell>
        <mxCell id="jCNSbIWRYmI-gDjIFtWc-5" value="&lt;div&gt;运维账号&lt;/div&gt;&lt;div&gt;ITOP&lt;br&gt;&lt;/div&gt;&lt;div&gt;(301279899543)&lt;br&gt;&lt;/div&gt;" style="rounded=1;arcSize=10;dashed=0;strokeColor=#000000;fillColor=none;gradientColor=none;strokeWidth=2;html=1;" parent="i_VrQHxqHC01QTTOsQBQ-1" vertex="1">
          <mxGeometry x="644" y="269.5" width="140" height="70" as="geometry" />
        </mxCell>
        <mxCell id="jCNSbIWRYmI-gDjIFtWc-6" value="" style="dashed=0;html=1;shape=mxgraph.aws3.cloud;fillColor=#F58536;gradientColor=none;dashed=0;" parent="i_VrQHxqHC01QTTOsQBQ-1" vertex="1">
          <mxGeometry x="665" y="244.5" width="52" height="36" as="geometry" />
        </mxCell>
        <mxCell id="6OqgepMNATY0NSKDS4sg-0" value="" style="endArrow=none;html=1;dashed=1;strokeWidth=2;fillColor=#d5e8d4;strokeColor=#82b366;" parent="i_VrQHxqHC01QTTOsQBQ-1" edge="1">
          <mxGeometry width="50" height="50" relative="1" as="geometry">
            <mxPoint x="70" y="391" as="sourcePoint" />
            <mxPoint x="780" y="391" as="targetPoint" />
          </mxGeometry>
        </mxCell>
        <mxCell id="6OqgepMNATY0NSKDS4sg-3" value="" style="endArrow=none;dashed=1;html=1;strokeWidth=2;exitX=0.95;exitY=0.5;exitDx=0;exitDy=0;exitPerimeter=0;fillColor=#d5e8d4;strokeColor=#82b366;" parent="i_VrQHxqHC01QTTOsQBQ-1" source="vsI_ihTIIE8sU7DxNnEk-12" edge="1">
          <mxGeometry width="50" height="50" relative="1" as="geometry">
            <mxPoint x="207" y="436" as="sourcePoint" />
            <mxPoint x="199" y="388" as="targetPoint" />
          </mxGeometry>
        </mxCell>
        <mxCell id="6OqgepMNATY0NSKDS4sg-4" value="" style="endArrow=none;dashed=1;html=1;strokeWidth=2;entryX=0.95;entryY=0.5;entryDx=0;entryDy=0;entryPerimeter=0;fillColor=#d5e8d4;strokeColor=#82b366;" parent="i_VrQHxqHC01QTTOsQBQ-1" target="vsI_ihTIIE8sU7DxNnEk-14" edge="1">
          <mxGeometry width="50" height="50" relative="1" as="geometry">
            <mxPoint x="428" y="390" as="sourcePoint" />
            <mxPoint x="217" y="398" as="targetPoint" />
          </mxGeometry>
        </mxCell>
        <mxCell id="6OqgepMNATY0NSKDS4sg-5" value="" style="endArrow=none;dashed=1;html=1;strokeWidth=2;entryX=0.95;entryY=0.5;entryDx=0;entryDy=0;entryPerimeter=0;fillColor=#d5e8d4;strokeColor=#82b366;" parent="i_VrQHxqHC01QTTOsQBQ-1" target="vsI_ihTIIE8sU7DxNnEk-16" edge="1">
          <mxGeometry width="50" height="50" relative="1" as="geometry">
            <mxPoint x="655" y="390" as="sourcePoint" />
            <mxPoint x="209" y="398" as="targetPoint" />
          </mxGeometry>
        </mxCell>
        <mxCell id="6OqgepMNATY0NSKDS4sg-6" value="" style="endArrow=none;dashed=1;html=1;strokeWidth=2;entryX=0.5;entryY=1;entryDx=0;entryDy=0;fillColor=#d5e8d4;strokeColor=#82b366;" parent="i_VrQHxqHC01QTTOsQBQ-1" target="vsI_ihTIIE8sU7DxNnEk-7" edge="1">
          <mxGeometry width="50" height="50" relative="1" as="geometry">
            <mxPoint x="130" y="390" as="sourcePoint" />
            <mxPoint x="209" y="398" as="targetPoint" />
          </mxGeometry>
        </mxCell>
        <mxCell id="6OqgepMNATY0NSKDS4sg-8" value="" style="endArrow=none;dashed=1;html=1;strokeWidth=2;entryX=0.5;entryY=1;entryDx=0;entryDy=0;fillColor=#d5e8d4;strokeColor=#82b366;" parent="i_VrQHxqHC01QTTOsQBQ-1" target="jCNSbIWRYmI-gDjIFtWc-2" edge="1">
          <mxGeometry width="50" height="50" relative="1" as="geometry">
            <mxPoint x="315" y="390" as="sourcePoint" />
            <mxPoint x="140" y="351" as="targetPoint" />
          </mxGeometry>
        </mxCell>
        <mxCell id="6OqgepMNATY0NSKDS4sg-9" value="" style="endArrow=none;dashed=1;html=1;strokeWidth=2;entryX=0.5;entryY=1;entryDx=0;entryDy=0;fillColor=#d5e8d4;strokeColor=#82b366;" parent="i_VrQHxqHC01QTTOsQBQ-1" target="vsI_ihTIIE8sU7DxNnEk-9" edge="1">
          <mxGeometry width="50" height="50" relative="1" as="geometry">
            <mxPoint x="523" y="390" as="sourcePoint" />
            <mxPoint x="325" y="351" as="targetPoint" />
          </mxGeometry>
        </mxCell>
        <mxCell id="6OqgepMNATY0NSKDS4sg-10" value="&lt;font color=&quot;#006633&quot;&gt;按需&lt;/font&gt;" style="text;html=1;strokeColor=none;fillColor=none;align=center;verticalAlign=middle;whiteSpace=wrap;rounded=0;" parent="i_VrQHxqHC01QTTOsQBQ-1" vertex="1">
          <mxGeometry x="90" y="370" width="40" height="20" as="geometry" />
        </mxCell>
        <mxCell id="6OqgepMNATY0NSKDS4sg-12" value="&lt;font color=&quot;#006633&quot;&gt;按需&lt;/font&gt;" style="text;html=1;strokeColor=none;fillColor=none;align=center;verticalAlign=middle;whiteSpace=wrap;rounded=0;" parent="i_VrQHxqHC01QTTOsQBQ-1" vertex="1">
          <mxGeometry x="275" y="370" width="40" height="20" as="geometry" />
        </mxCell>
        <mxCell id="6OqgepMNATY0NSKDS4sg-13" value="" style="endArrow=none;html=1;dashed=1;strokeWidth=2;fillColor=#f8cecc;strokeColor=#b85450;" parent="i_VrQHxqHC01QTTOsQBQ-1" edge="1">
          <mxGeometry width="50" height="50" relative="1" as="geometry">
            <mxPoint x="70" y="560" as="sourcePoint" />
            <mxPoint x="840" y="560" as="targetPoint" />
          </mxGeometry>
        </mxCell>
        <mxCell id="6OqgepMNATY0NSKDS4sg-14" value="" style="endArrow=none;html=1;dashed=1;strokeWidth=2;fillColor=#f8cecc;strokeColor=#b85450;" parent="i_VrQHxqHC01QTTOsQBQ-1" edge="1">
          <mxGeometry width="50" height="50" relative="1" as="geometry">
            <mxPoint x="840" y="160" as="sourcePoint" />
            <mxPoint x="840" y="560" as="targetPoint" />
          </mxGeometry>
        </mxCell>
        <mxCell id="6OqgepMNATY0NSKDS4sg-15" value="" style="endArrow=none;html=1;dashed=1;strokeWidth=2;fillColor=#f8cecc;strokeColor=#b85450;exitX=1;exitY=0.5;exitDx=0;exitDy=0;" parent="i_VrQHxqHC01QTTOsQBQ-1" source="vsI_ihTIIE8sU7DxNnEk-5" edge="1">
          <mxGeometry width="50" height="50" relative="1" as="geometry">
            <mxPoint x="850" y="170" as="sourcePoint" />
            <mxPoint x="840" y="157" as="targetPoint" />
          </mxGeometry>
        </mxCell>
        <mxCell id="6OqgepMNATY0NSKDS4sg-16" value="" style="endArrow=none;html=1;dashed=1;strokeWidth=2;fillColor=#f8cecc;strokeColor=#b85450;" parent="i_VrQHxqHC01QTTOsQBQ-1" edge="1">
          <mxGeometry width="50" height="50" relative="1" as="geometry">
            <mxPoint x="70" y="217" as="sourcePoint" />
            <mxPoint x="840" y="217" as="targetPoint" />
          </mxGeometry>
        </mxCell>
        <mxCell id="6OqgepMNATY0NSKDS4sg-17" value="" style="endArrow=none;html=1;dashed=1;strokeWidth=2;fillColor=#f8cecc;strokeColor=#b85450;entryX=0.5;entryY=0;entryDx=0;entryDy=0;" parent="i_VrQHxqHC01QTTOsQBQ-1" target="jCNSbIWRYmI-gDjIFtWc-5" edge="1">
          <mxGeometry width="50" height="50" relative="1" as="geometry">
            <mxPoint x="714" y="218" as="sourcePoint" />
            <mxPoint x="730" y="618" as="targetPoint" />
          </mxGeometry>
        </mxCell>
        <mxCell id="6OqgepMNATY0NSKDS4sg-18" value="" style="endArrow=none;html=1;dashed=1;strokeWidth=2;fillColor=#f8cecc;strokeColor=#b85450;entryX=0.5;entryY=0;entryDx=0;entryDy=0;" parent="i_VrQHxqHC01QTTOsQBQ-1" edge="1">
          <mxGeometry width="50" height="50" relative="1" as="geometry">
            <mxPoint x="522.5" y="219" as="sourcePoint" />
            <mxPoint x="522.5" y="271" as="targetPoint" />
          </mxGeometry>
        </mxCell>
        <mxCell id="6OqgepMNATY0NSKDS4sg-19" value="" style="endArrow=none;html=1;dashed=1;strokeWidth=2;fillColor=#f8cecc;strokeColor=#b85450;entryX=0.5;entryY=0;entryDx=0;entryDy=0;" parent="i_VrQHxqHC01QTTOsQBQ-1" edge="1">
          <mxGeometry width="50" height="50" relative="1" as="geometry">
            <mxPoint x="314" y="217.5" as="sourcePoint" />
            <mxPoint x="314" y="269.5" as="targetPoint" />
          </mxGeometry>
        </mxCell>
        <mxCell id="6OqgepMNATY0NSKDS4sg-20" value="" style="endArrow=none;html=1;dashed=1;strokeWidth=2;fillColor=#f8cecc;strokeColor=#b85450;entryX=0.5;entryY=0;entryDx=0;entryDy=0;" parent="i_VrQHxqHC01QTTOsQBQ-1" edge="1">
          <mxGeometry width="50" height="50" relative="1" as="geometry">
            <mxPoint x="129" y="220" as="sourcePoint" />
            <mxPoint x="129" y="272" as="targetPoint" />
          </mxGeometry>
        </mxCell>
        <mxCell id="6OqgepMNATY0NSKDS4sg-21" value="" style="endArrow=none;html=1;dashed=1;strokeWidth=2;fillColor=#f8cecc;strokeColor=#b85450;entryX=0.5;entryY=0;entryDx=0;entryDy=0;" parent="i_VrQHxqHC01QTTOsQBQ-1" edge="1">
          <mxGeometry width="50" height="50" relative="1" as="geometry">
            <mxPoint x="199" y="506" as="sourcePoint" />
            <mxPoint x="199" y="558" as="targetPoint" />
          </mxGeometry>
        </mxCell>
        <mxCell id="6OqgepMNATY0NSKDS4sg-22" value="" style="endArrow=none;html=1;dashed=1;strokeWidth=2;fillColor=#f8cecc;strokeColor=#b85450;exitX=0.5;exitY=1;exitDx=0;exitDy=0;" parent="i_VrQHxqHC01QTTOsQBQ-1" source="vsI_ihTIIE8sU7DxNnEk-13" edge="1">
          <mxGeometry width="50" height="50" relative="1" as="geometry">
            <mxPoint x="149" y="240" as="sourcePoint" />
            <mxPoint x="423" y="560" as="targetPoint" />
          </mxGeometry>
        </mxCell>
        <mxCell id="6OqgepMNATY0NSKDS4sg-23" value="" style="endArrow=none;html=1;dashed=1;strokeWidth=2;fillColor=#f8cecc;strokeColor=#b85450;exitX=0.5;exitY=1;exitDx=0;exitDy=0;" parent="i_VrQHxqHC01QTTOsQBQ-1" source="vsI_ihTIIE8sU7DxNnEk-15" edge="1">
          <mxGeometry width="50" height="50" relative="1" as="geometry">
            <mxPoint x="159" y="250" as="sourcePoint" />
            <mxPoint x="650" y="560" as="targetPoint" />
          </mxGeometry>
        </mxCell>
        <mxCell id="6OqgepMNATY0NSKDS4sg-24" value="" style="endArrow=none;dashed=1;html=1;strokeWidth=2;entryX=0.5;entryY=1;entryDx=0;entryDy=0;fillColor=#d5e8d4;strokeColor=#82b366;" parent="i_VrQHxqHC01QTTOsQBQ-1" edge="1">
          <mxGeometry width="50" height="50" relative="1" as="geometry">
            <mxPoint x="680" y="72" as="sourcePoint" />
            <mxPoint x="610" y="72" as="targetPoint" />
          </mxGeometry>
        </mxCell>
        <mxCell id="6OqgepMNATY0NSKDS4sg-25" value="" style="endArrow=none;html=1;dashed=1;strokeWidth=2;fillColor=#f8cecc;strokeColor=#b85450;" parent="i_VrQHxqHC01QTTOsQBQ-1" edge="1">
          <mxGeometry width="50" height="50" relative="1" as="geometry">
            <mxPoint x="613" y="97.5" as="sourcePoint" />
            <mxPoint x="683" y="97.5" as="targetPoint" />
          </mxGeometry>
        </mxCell>
        <mxCell id="6OqgepMNATY0NSKDS4sg-26" value="VPC Peering" style="text;html=1;strokeColor=none;fillColor=none;align=center;verticalAlign=middle;whiteSpace=wrap;rounded=0;" parent="i_VrQHxqHC01QTTOsQBQ-1" vertex="1">
          <mxGeometry x="694" y="60" width="86" height="20" as="geometry" />
        </mxCell>
        <mxCell id="6OqgepMNATY0NSKDS4sg-27" value="Consolidated Billing" style="text;html=1;strokeColor=none;fillColor=none;align=center;verticalAlign=middle;whiteSpace=wrap;rounded=0;" parent="i_VrQHxqHC01QTTOsQBQ-1" vertex="1">
          <mxGeometry x="693" y="88" width="127" height="20" as="geometry" />
        </mxCell>
      </root>
    </mxGraphModel>
  </diagram>
  <diagram name="Page-4" id="kVIYYwgtsPHHAB1G8A4w">
    <mxGraphModel dx="950" dy="646" grid="1" gridSize="10" guides="1" tooltips="1" connect="1" arrows="1" fold="1" page="1" pageScale="1" pageWidth="850" pageHeight="1100" math="0" shadow="0">
      <root>
        <mxCell id="3DGgK83KspVoWfHmgipi-0" />
        <mxCell id="3DGgK83KspVoWfHmgipi-1" parent="3DGgK83KspVoWfHmgipi-0" />
      </root>
    </mxGraphModel>
  </diagram>
</mxfile>
